<svg width="250" height="231" viewBox="0 0 250 231" fill="none" xmlns="http://www.w3.org/2000/svg">
<g id="Group">
<path id="Vector" d="M221.681 202.947C221.951 202.969 222.221 202.989 222.49 203.009C222.073 203.048 221.655 203.088 221.237 203.13C221.385 203.068 221.533 203.007 221.681 202.947Z" fill="#231F20"/>
<path id="Vector_2" d="M147.623 201.11C144.373 200.841 141.12 200.61 137.854 200.61C135.837 200.543 124.806 201.232 125.674 198.007C128.92 188.792 132.284 179.253 131.645 169.354C131.827 169.184 131.734 168.834 131.499 168.778C131.453 168.714 131.391 168.662 131.319 168.633C130.506 166.876 128.227 166.026 127.101 164.392C122.777 159.171 126.639 152.802 127.177 147.043C126.114 143.287 122.416 140.976 120.525 137.654C118.246 136.913 125.913 129.193 126.792 127.977C126.763 128.009 126.734 128.04 126.706 128.071C127.857 126.83 128.913 125.505 129.891 124.124C129.891 124.125 129.89 124.127 129.889 124.128C130.624 123.296 131.066 121.868 132.255 121.643C134.253 121.817 136.291 121.885 138.289 122.225C139.269 122.335 139.712 122.815 139.977 123.72C140.556 124.982 141.397 126.071 142.262 127.144C144.294 129.975 144.17 133.666 144.416 136.996C144.807 140.849 145.562 144.703 146.793 148.381C154.089 141.245 161.817 134.465 168.287 126.542C169.92 124.281 170.607 121.533 171.751 119.017C172.074 118.08 172.366 117.13 172.558 116.157C172.483 115.68 172.737 115.147 173.185 114.94C174.024 114.575 174.93 115.166 175.749 115.368C177.877 116.027 180.045 116.554 182.182 117.186C185.191 118.122 188.307 118.611 191.346 119.418C192.039 119.605 193.005 119.481 193.356 120.242C189.874 126.375 187.346 133.172 185.928 140.091C183.773 144.857 183.369 150.175 182.133 155.215C181.605 158.485 180.569 161.605 179.622 164.782C178.485 169.168 177.643 173.667 177.661 178.21C177.663 178.186 177.665 178.162 177.667 178.137C177.665 178.166 177.663 178.194 177.661 178.222C177.661 178.218 177.661 178.214 177.661 178.21C177.661 178.216 177.661 178.221 177.66 178.226C177.661 178.226 177.661 178.226 177.661 178.225C177.661 178.228 177.66 178.232 177.66 178.235C177.66 178.232 177.66 178.23 177.66 178.226C177.552 179.829 177.342 181.423 177.299 183.029C177.299 183.025 177.299 183.021 177.299 183.017C177.298 183.025 177.298 183.034 177.298 183.043C177.298 183.038 177.299 183.034 177.299 183.029C177.298 183.064 177.296 183.098 177.296 183.132C177.296 183.129 177.296 183.125 177.296 183.122C177.293 187.622 177.615 192.12 177.854 196.614C177.854 196.608 177.854 196.602 177.854 196.596C177.919 197.472 177.991 198.348 178.119 199.217C173.123 199.61 168.124 199.912 163.118 200.124C157.952 200.439 152.806 201.16 147.623 201.11Z" fill="#F7941D"/>
<path id="Vector_3" d="M137.078 109.309C135 109.365 134.808 106.763 136.594 106.096C137.701 105.701 139.647 105.675 139.743 107.227C139.86 108.652 138.342 109.466 137.078 109.309Z" fill="#F7941D"/>
<path id="Vector_4" d="M150.004 108.215C148.207 108.332 146.591 106.267 148.056 104.81C149.59 103.609 152.686 103.396 153.699 105.356C154.56 107.481 151.579 108.247 150.004 108.215Z" fill="#F7941D"/>
<path id="Vector_5" d="M132.326 52.1825C132.299 51.0169 133.161 49.9216 133.917 49.0973C134.947 48.0835 136.441 48.311 137.715 47.9677C138.395 47.556 139.128 46.5746 139.97 47.3075C141.24 49.0663 138.242 50.2392 136.843 50.2729C134.049 49.7748 133.4 54.0019 132.326 52.1825Z" fill="#F7941D"/>
<path id="Vector_6" d="M132.767 54.0107C131.653 53.4216 132.579 52.0363 133.224 51.4348C133.312 50.1187 135.057 49.991 136.004 49.4917C136.994 49.2694 138.876 48.1665 139.442 49.4783C139.526 49.405 139.605 49.3257 139.68 49.2426C139.518 48.8139 139.09 48.5226 138.959 48.0798C138.961 48.0805 138.962 48.0814 138.964 48.0822C139.062 46.0505 141.896 48.9884 140.763 49.953C139.447 51.9062 137.019 52.0651 135.025 52.8277C134.27 53.1972 133.733 54.3548 132.767 54.0107Z" fill="#F7941D"/>
<path id="Vector_7" d="M173.538 39.4966C171.563 39.5249 170.315 37.6225 168.541 37.0415C167.429 36.4938 165.389 37.576 165.019 35.9728C164.773 33.3951 168.054 32.8491 170.003 32.6966C171.418 32.6474 172.5 33.5858 173.464 34.4975C174.449 35.2537 175.658 35.6263 176.736 36.2286C176.734 36.2277 176.732 36.2267 176.73 36.2258C178.794 37.3723 174.887 39.9253 173.538 39.4966Z" fill="#F7941D"/>
<path id="Vector_8" d="M60.3312 71.982C59.0875 71.6201 59.6618 70.0514 60.2837 69.3529C60.9368 68.4093 62.0467 67.9832 63.0985 67.6434C63.9083 67.3623 70.1053 65.8626 70.0766 66.9999C72.0784 68.7243 68.2653 70.5726 66.8762 71.0959C65.7028 71.5829 64.4378 71.3473 63.2114 71.4379C62.2457 71.5694 61.3273 72.171 60.3312 71.982Z" fill="#F7941D"/>
<path id="Vector_9" d="M106.844 37.5254C106.42 37.4193 106.247 37.0745 106.181 36.6845C105.28 35.8797 107.237 30.2302 108.127 29.4831C109.432 28.2891 110.609 29.5562 110.356 31.0354C110.177 32.7746 109.029 37.6457 106.844 37.5254Z" fill="#F7941D"/>
<path id="Vector_10" d="M75.949 112.792C73.8478 112.749 70.138 111.214 71.6943 108.606C72.7054 107.125 74.339 108.55 75.6814 108.524C77.9803 108.719 81.6023 105.129 83.5116 107.058C84.2532 107.046 84.8541 107.716 84.6354 108.45C84.3667 109.558 83.0114 109.662 82.1818 110.19C80.2807 111.462 78.4306 113.245 75.949 112.792Z" fill="#F7941D"/>
<path id="Vector_11" d="M166.968 7.18656C164.469 5.97221 168.102 3.48763 169.242 2.62716C170.651 1.84267 172.351 2.23916 173.812 1.64689C174.545 1.41683 175.047 0.52179 175.888 0.728155C176.988 1.09335 176.817 2.63461 176.451 3.48957C175.492 5.29039 173.088 5.49705 171.261 5.59822C168.933 5.63443 168.398 7.3296 166.968 7.18656Z" fill="#F7941D"/>
<path id="Vector_12" d="M175.622 46.9602C173.843 46.7021 172.556 45.3233 173.878 43.6759C173.87 43.3828 174.074 43.0906 174.339 42.9799C174.332 42.9816 174.326 42.9834 174.319 42.985C174.409 42.9418 174.497 42.9227 174.588 42.9145C174.587 42.9148 174.586 42.915 174.585 42.9153C175.859 43.1674 177.144 43.2128 178.353 42.628C180.16 41.8958 183.516 39.59 184.747 42.1528C184.741 42.1417 184.736 42.1305 184.731 42.1195C185.858 44.3074 181.943 45.1014 180.482 45.5292C178.856 45.9884 177.424 47.368 175.622 46.9602Z" fill="#F7941D"/>
<path id="Vector_13" d="M105.376 38.3754C104.424 38.1012 103.526 37.2676 103.412 36.2517C103.319 35.2345 104.474 34.8612 104.852 34.0462C105.999 31.9466 106.067 28.9716 108.478 27.7965C109.07 27.5176 109.934 27.3098 110.402 27.9029C111.618 27.6152 111.642 29.1276 112.043 29.8846C112.593 30.9956 111.307 31.6242 110.641 32.2662C109.783 33.3341 109.729 34.8532 108.935 35.988C108.167 37.1573 106.954 38.7297 105.376 38.3754ZM106.122 36.2828C108.175 34.8475 107.812 31.7486 109.959 30.3955C109.76 29.9652 109.414 29.557 109.429 29.0626C107.17 30.6287 107.872 34.2278 105.803 36.0687C105.897 36.1553 106.004 36.2323 106.122 36.2828Z" fill="#F7941D"/>
<path id="Vector_14" d="M119.117 31.2483C115.343 29.5801 118.95 28.6958 120.024 26.8997C120.619 25.5934 120.281 23.9374 121.21 22.7802C121.656 21.2012 124.67 22.1438 123.827 23.7493C123.157 25.2071 123.613 26.8914 122.92 28.3304C122.212 29.6733 120.874 31.7376 119.117 31.2483ZM119.929 29.4485C120.409 29.1231 120.795 28.6625 121.051 28.1427C120.721 28.6216 120.307 29.0394 119.869 29.4203C119.889 29.4299 119.909 29.4393 119.929 29.4485Z" fill="#F7941D"/>
<path id="Vector_15" d="M225.976 66.558C224.377 65.594 217.912 63.7376 221.076 61.3092C221.481 60.4427 222.812 60.7327 223.611 60.6169C225.59 61.0639 226.916 62.9497 228.703 63.8203C229.521 64.9039 227.11 67.1108 225.976 66.558ZM225.207 63.6738C224.751 63.2757 224.284 62.8884 223.806 62.5159C223.732 62.6181 223.643 62.7072 223.543 62.7799C223.89 62.9634 224.235 63.1505 224.583 63.3341C224.578 63.3315 224.573 63.3292 224.569 63.3266C224.783 63.4394 224.998 63.5528 225.207 63.6738Z" fill="#F7941D"/>
<path id="Vector_16" d="M224.638 64.265C224.134 63.8122 223.483 63.401 223.228 62.7525C223.208 61.6976 224.095 61.9735 224.67 62.4249C224.946 62.5613 225.334 62.7156 225.241 63.0964C226.134 63.4713 225.42 64.8092 224.638 64.265Z" fill="#F7941D"/>
<path id="Vector_17" d="M120.874 50.4372C119.359 48.9824 122.076 48.5208 122.8 47.7089C123.82 46.654 124.374 43.62 126.299 44.3083C127.056 43.8027 128.179 44.8807 127.873 45.6724C127.598 46.2487 126.922 46.4624 126.509 46.9289C125.046 48.5005 123.487 51.7648 120.874 50.4372ZM125.67 45.6633C125.718 45.6192 125.767 45.5761 125.818 45.5339C125.813 45.5225 125.808 45.5109 125.804 45.4989C125.756 45.5512 125.709 45.6043 125.67 45.6633Z" fill="#231F20"/>
<path id="Vector_18" d="M158.804 28.5533C158.406 28.5394 158.112 28.176 158.093 27.7994C158.202 26.5402 159.83 26.1183 160.886 25.9465C161.819 26.0744 163.596 25.0047 163.944 25.9907C164.227 28.6561 160.537 28.192 158.804 28.5533Z" fill="#231F20"/>
<path id="Vector_19" d="M127.806 21.2411C127.442 21.1514 127.21 20.809 127.195 20.4407C126.261 19.0221 126.519 17.398 126.934 15.8546C127.026 14.9666 127.171 13.834 126.554 13.1163C126.281 12.8722 126.169 12.5388 126.16 12.1886C126.161 12.1889 126.162 12.1894 126.163 12.1897C126.055 11.9073 126.255 11.5618 126.537 11.4713C127.963 10.1894 129.406 12.703 129.599 13.9541C129.805 15.277 129.125 16.5484 129.223 17.8684C129.378 18.6852 130.111 19.8249 129.041 20.3194C128.996 20.8919 128.38 21.3927 127.806 21.2411Z" fill="#231F20"/>
<path id="Vector_20" d="M66.9001 85.0617C64.4553 84.1203 66.0247 82.9204 67.2328 81.7607C67.94 80.4601 69.5268 75.4436 71.588 76.4946C72.2909 76.1975 73.1058 76.8432 72.7843 77.5937C72.5633 78.0843 72.2078 78.5073 71.9977 79.0078C71.3083 81.1126 69.721 85.6903 66.9001 85.0617ZM68.6757 82.519C68.6897 82.5023 68.7027 82.4847 68.7161 82.4675C68.7134 82.4661 68.7108 82.4649 68.7081 82.4636C68.6975 82.4821 68.6866 82.5005 68.6757 82.519Z" fill="#231F20"/>
<path id="Vector_21" d="M93.1587 122.139C91.887 121.785 92.6697 120.24 92.6214 119.322C92.4651 117.574 92.1427 114.213 93.8716 113.209C94.2081 112.741 94.8769 112.681 95.2897 113.076C95.986 114.06 95.1533 115.449 95.5292 116.587C95.7247 118.518 95.8334 122.118 93.1587 122.139Z" fill="#231F20"/>
<path id="Vector_22" d="M214.057 87.0674C212.997 86.9118 212.136 85.7584 212.854 84.7864C213.83 83.5371 215.768 83.6584 216.688 82.3167C218.031 80.3448 219.397 77.7702 222.01 77.4174C223.083 77.1845 223.569 78.769 222.42 78.9783C223.585 80.5279 220.238 81.6673 219.567 83.0231C218.298 84.8418 216.597 87.4287 214.057 87.0674Z" fill="#231F20"/>
<path id="Vector_23" d="M234.482 52.4897C232.09 52.5103 230.751 50.3534 228.895 49.2309C228.037 48.7847 226.874 48.6899 226.322 47.8123C225.7 46.6847 226.964 45.1884 228.172 45.6537C231.05 44.6817 232.602 47.833 234.893 48.8523C235.581 49.2433 236.362 49.4759 237.006 49.9385C238.306 51.4743 235.87 52.7536 234.482 52.4897Z" fill="#231F20"/>
<path id="Vector_24" d="M80.5172 230.704C74.2674 230.878 68.1483 229.392 62.5232 226.702C58.9722 225.282 56.6271 221.316 52.514 221.397C41.3149 220.708 30.2103 224.596 19.0519 223.113C15.7529 222.396 12.5519 221.238 9.37625 220.108C6.14146 218.916 3.6776 216.241 2.36222 213.094C1.70588 211.046 -1.85075 204.08 1.29285 203.283C7.69106 203.695 14.0015 202.052 20.4131 202.109C28.3876 201.87 36.3307 203.314 44.2695 201.968C44.9154 201.838 45.4189 202.553 44.9314 203.064C42.4833 204.275 39.4483 204.231 36.7514 204.584C32.188 204.836 27.6273 204.214 23.0603 204.362C19.1437 204.433 15.2212 204.602 11.3369 205.135C8.34666 205.535 5.32852 206.009 2.30575 205.723C3.60369 211.208 5.8825 217.166 11.9587 218.613C11.9164 218.598 11.8741 218.583 11.8325 218.567C15.2211 219.674 18.5763 221.099 22.1749 221.31C31.9088 221.606 41.4673 219.02 51.2011 219.204C56.2485 218.82 58.2982 221.421 62.0257 224.071C65.9395 226.173 70.2502 227.736 74.6524 228.389C83.9122 229.568 93.1265 227.97 102.177 226.095C111.461 225.011 120.489 222.392 129.788 221.498C129.747 221.501 129.706 221.505 129.665 221.508C134.808 221.101 139.959 220.54 145.124 220.657C150.383 220.871 155.593 221.719 160.812 222.361C171.26 224.011 182.252 227.352 192.622 223.586C192.618 223.587 192.613 223.589 192.609 223.59C216.126 213.522 217.255 209.143 245.032 208.703C245.662 205.804 246.346 202.911 246.982 200.012C235.507 200.343 224.031 200.232 212.551 200.252C203.491 200.402 194.479 201.509 185.422 201.728C177.75 201.924 170.075 201.557 162.407 201.725C152.998 202.506 143.57 202.689 134.135 202.908C132.586 202.923 131.037 202.941 129.488 202.916C128.591 202.928 127.14 202.943 127.372 201.656C127.555 200.75 128.433 200.513 129.246 200.677C130.408 200.723 131.572 200.697 132.734 200.689C136.41 200.694 140.079 200.473 143.753 200.403C150.148 200.481 156.503 199.814 162.878 199.441C169.322 199.307 175.769 199.59 182.217 199.5C196.382 199.327 210.484 197.4 224.672 198.019C229.808 198.029 234.949 198.122 240.081 197.906C242.6 197.827 245.128 197.671 247.647 197.763C249.805 197.772 249.239 200.132 248.801 201.53C247.98 204.262 247.771 207.226 246.661 209.845C245.671 211.389 243.558 210.777 242.008 210.989C230.927 211.144 219.718 212.568 209.824 217.878C193.539 225.742 187.737 229.731 168.911 225.919C160.868 224.36 152.72 223.124 144.535 222.682C139.556 222.585 134.592 223.146 129.632 223.518C120.73 224.344 112.106 226.906 103.215 227.884C95.7002 229.214 88.2064 231.07 80.5172 230.704Z" fill="#231F20"/>
<path id="Vector_25" d="M151.211 103.002C149.962 103.029 148.807 102.152 148.503 100.94C148.51 100.963 148.517 100.987 148.524 101.01C148.188 100.025 148.469 98.8369 149.21 98.1186C149.712 97.3594 150.408 96.6956 151.261 96.3516C151.239 96.3608 151.218 96.3708 151.197 96.3801C157.458 94.0643 157.779 102.939 151.211 103.002ZM152.064 101.949C153.812 101.736 155.924 99.8738 154.77 98.0445C153.369 96.0934 150.205 97.3824 149.485 99.3459C148.819 100.931 150.54 102.337 152.064 101.949Z" fill="#231F20"/>
<path id="Vector_26" d="M150.793 102.169C148.905 101.922 150.589 99.2316 151.876 99.8556C153.243 100.454 152.119 102.775 150.793 102.169Z" fill="#231F20"/>
<path id="Vector_27" d="M153.002 96.5057C152.627 95.7851 153.961 95.1448 154.296 94.5652C154.557 94.3516 154.807 93.6894 155.209 93.9978C155.35 94.1373 155.336 94.3751 155.219 94.5238C154.877 94.8169 153.272 96.8342 153.002 96.5057Z" fill="#231F20"/>
<path id="Vector_28" d="M154.679 97.1952C154.414 96.55 155.445 96.0172 155.659 95.427C155.937 94.7103 156.915 95.0273 156.413 95.7198C156.416 95.7155 156.418 95.7113 156.421 95.707C155.964 96.1541 155.256 97.0748 154.679 97.1952Z" fill="#231F20"/>
<path id="Vector_29" d="M155.444 97.9608C155.82 97.3174 156.5 96.8603 157.02 96.326C157.36 96.061 157.801 96.4206 157.71 96.8117C157.65 97.1781 157.27 97.3369 156.994 97.5248C156.995 97.5236 156.997 97.5224 156.999 97.5214C156.654 97.6598 155.473 98.802 155.444 97.9608Z" fill="#231F20"/>
<path id="Vector_30" d="M146.44 95.4381C145.554 93.8782 148.749 90.7747 150.28 90.4783C151.981 89.8035 154.555 89.4936 155.634 91.324C155.746 91.5137 155.684 91.7833 155.53 91.9306C155.388 92.0674 155.133 92.1084 154.989 91.9466C153.131 90.4515 149.582 91.947 148.124 93.5192C148.144 93.4967 148.164 93.475 148.184 93.4525C148.163 93.4756 148.142 93.499 148.121 93.5222C148.124 93.5182 148.128 93.514 148.132 93.51C148.118 93.5245 148.105 93.5391 148.092 93.5535C148.096 93.5489 148.101 93.5443 148.105 93.5395C147.643 94.0741 147.208 94.6505 146.954 95.3092C146.954 95.3084 146.954 95.3075 146.954 95.3066C146.865 95.4917 146.608 95.5586 146.44 95.4381Z" fill="#231F20"/>
<path id="Vector_31" d="M140.105 109.365C137.123 108.925 140.504 105.6 141 104.185C140.997 104.191 140.993 104.197 140.99 104.204C141.561 102.971 141.895 101.593 141.826 100.231C141.827 100.25 141.828 100.268 141.828 100.287C141.824 99.8522 141.77 99.4189 141.737 98.9864C142.154 98.0679 142.493 99.7853 142.539 100.124C142.538 100.115 142.537 100.106 142.535 100.097C142.538 100.115 142.541 100.134 142.544 100.152C142.544 100.152 142.544 100.152 142.544 100.151C142.547 100.173 142.551 100.195 142.555 100.217C142.551 100.198 142.549 100.18 142.545 100.161C142.55 100.188 142.554 100.215 142.559 100.242C142.558 100.241 142.558 100.239 142.558 100.238C143.051 103.169 141.366 105.767 139.961 108.186C142.078 108.675 142.697 105.915 143.826 104.737C145.068 104.347 144.314 106.412 143.801 106.722C143.006 108.018 141.819 109.61 140.105 109.365Z" fill="#231F20"/>
<path id="Vector_32" d="M135.617 109.594C135.229 109.038 135.803 108.123 136.151 107.629C136.256 107.501 136.447 107.457 136.575 107.583C136.88 107.98 136.278 108.345 136.165 108.716C136.166 108.714 136.167 108.712 136.168 108.71C136.161 108.723 136.154 108.737 136.147 108.75C136.15 108.745 136.153 108.739 136.156 108.734C136.049 108.957 135.932 109.185 135.878 109.428C135.878 109.428 135.877 109.427 135.877 109.426C135.866 109.542 135.732 109.655 135.617 109.594Z" fill="#231F20"/>
<path id="Vector_33" d="M136.692 109.68C136.192 109.264 137.814 106.027 137.858 107.784C137.48 108.152 137.284 110.151 136.692 109.68Z" fill="#231F20"/>
<path id="Vector_34" d="M138.072 109.144C137.958 108.63 138.296 108.059 138.455 107.568C138.504 107.452 138.643 107.373 138.763 107.432C139.107 107.787 138.491 108.334 138.44 108.749C138.444 108.739 138.448 108.729 138.452 108.72C138.429 108.782 138.408 108.843 138.388 108.906C138.45 109.077 138.217 109.314 138.072 109.144Z" fill="#231F20"/>
<path id="Vector_35" d="M148.429 106.983C148.464 106.543 148.643 106.124 148.78 105.708C148.78 105.709 148.779 105.711 148.778 105.713C148.785 105.695 148.791 105.678 148.797 105.661C148.797 105.663 148.796 105.665 148.795 105.667C148.817 105.606 148.839 105.545 148.862 105.485C148.86 105.49 148.858 105.495 148.856 105.5C149.075 105.125 149.143 104.181 149.729 104.318C149.907 104.406 149.949 104.642 149.872 104.811C149.699 105.189 149.531 105.568 149.379 105.955C149.38 105.952 149.382 105.948 149.383 105.945C149.378 105.957 149.374 105.969 149.37 105.981C149.37 105.98 149.37 105.98 149.37 105.98C149.349 106.037 149.328 106.094 149.307 106.151C149.309 106.146 149.311 106.141 149.313 106.136C149.081 106.502 149.243 107.164 148.795 107.335C148.59 107.38 148.418 107.187 148.429 106.983Z" fill="#231F20"/>
<path id="Vector_36" d="M150.437 106.82C150.262 106.801 150.185 106.587 150.251 106.441C150.248 106.447 150.245 106.454 150.242 106.46C150.465 106.025 150.947 104.408 151.516 104.596C151.651 104.693 151.659 104.89 151.579 105.024C151.21 105.41 150.821 106.762 150.437 106.82Z" fill="#231F20"/>
<path id="Vector_37" d="M152.455 105.78C152.388 105.089 152.966 104.462 153.228 103.843C153.698 103.272 154.114 104.059 153.705 104.483C153.709 104.474 153.714 104.465 153.718 104.456C153.7 104.493 153.681 104.529 153.662 104.565C153.667 104.555 153.672 104.545 153.677 104.536C153.669 104.552 153.66 104.568 153.652 104.585C153.652 104.583 153.653 104.582 153.654 104.58C153.329 104.934 153.071 106.538 152.455 105.78Z" fill="#231F20"/>
<path id="Vector_38" d="M164.655 127.635C164.113 123.17 164.613 118.625 164.616 114.133C164.643 111.852 164.614 109.568 164.701 107.289C164.855 106.391 164.331 105.313 164.903 104.538C164.658 103.317 165.588 102.98 166.408 102.388C168.028 101.233 168.752 99.3937 166.114 99.1781C165.991 99.6064 165.606 100.027 165.127 99.9809C164.796 100.225 164.483 100.568 164.071 100.66C163.515 101.598 163.217 103.78 162.343 104.264C162.087 104.748 161.874 106.081 161.091 105.592C160.184 105.498 160.858 104.246 160.916 103.695C161.303 102.407 161.525 101.083 161.748 99.7597C161.678 99.6028 161.718 99.397 161.831 99.2727C162 95.5211 162.362 91.0973 159.978 87.9406C156.11 83.855 149.25 84.2597 144.701 86.9548C144.702 86.9542 144.703 86.9534 144.704 86.9528C144.04 87.5563 142.814 87.7059 143.691 86.5286C143.435 86.6112 143.189 86.7189 142.943 86.8293C142.957 86.8233 142.971 86.8174 142.985 86.8108C141.888 86.9601 138 91.5967 138.918 88.1244C137.245 90.0973 135.47 92.3043 134.722 94.8062C135.912 93.5698 138.049 93.661 139.38 94.629C139.849 95.0128 140.797 95.7557 140.266 96.3972C140.1 96.5571 139.855 96.5723 139.683 96.4151C138.362 95.0473 135.796 95.018 134.673 96.6523C134.678 97.9776 134.759 99.3027 134.727 100.628C136.304 97.5367 140.499 98.3659 140.664 101.89C140.922 104.817 136.724 106.406 134.775 104.406C135.114 110.78 135.409 119.147 144.042 118.064C146.626 117.255 145.475 120.982 145.661 122.412C145.379 123.825 146.408 127.766 144.522 127.975C143.027 127.897 143.649 126.117 143.721 125.16C143.912 123.39 144.088 121.617 144.277 119.846C144.273 119.886 144.269 119.925 144.265 119.965C144.286 119.755 144.306 119.546 144.316 119.336C140.876 119.941 136.512 119.417 135.108 115.709C135.111 115.717 135.115 115.724 135.118 115.732C135.107 115.709 135.097 115.685 135.086 115.661L135.086 115.661C135.086 115.66 135.086 115.659 135.085 115.658C135.085 115.659 135.086 115.659 135.086 115.66C135.086 115.663 135.088 115.665 135.089 115.668C135.088 115.666 135.088 115.664 135.087 115.662C135.087 115.662 135.087 115.663 135.087 115.663C133.364 111.534 133.56 106.902 133.543 102.508C132.988 102.533 131.307 103.436 131.243 102.541C131.275 101.764 132.913 102.271 133.494 102.136C133.514 102.121 133.539 102.109 133.564 102.106C133.575 101.916 133.589 101.725 133.602 101.535C132.959 101.412 131.303 101.626 131.595 100.568C131.965 99.8479 132.687 100.675 133.208 100.773C133.207 100.773 133.206 100.772 133.205 100.772C133.216 100.776 133.226 100.781 133.238 100.785C133.231 100.782 133.225 100.78 133.218 100.777C133.361 100.831 133.505 100.885 133.648 100.94C133.662 100.741 133.677 100.543 133.687 100.345C133.283 99.9628 132.177 99.5524 132.607 98.8682C133.081 98.351 133.403 99.217 133.727 99.4775C133.747 98.8681 133.755 98.2576 133.768 97.6478C133.737 97.6597 133.704 97.6676 133.668 97.6708C133.668 97.6702 133.668 97.6695 133.668 97.6689C133.169 97.6194 133.39 96.9807 133.535 96.6883C134.156 95.2307 133.969 93.5052 134.495 91.9798C135.391 89.4971 136.612 86.9421 138.76 85.3119C138.741 85.3284 138.72 85.3456 138.7 85.3621C138.839 85.245 138.979 85.1285 139.117 85.0114L139.116 85.0118C143.129 81.9575 148.455 80.5658 153.426 80.1423C160.186 80.1274 165.878 82.8233 166.63 90.168C166.63 90.1666 166.63 90.1653 166.63 90.1639C166.983 92.6624 167.019 95.2402 166.473 97.7132C170.955 98.3907 169.034 102.59 166.217 104.162C166.285 105.935 166.129 107.706 166.258 109.477C166.258 109.472 166.258 109.468 166.258 109.464C166.261 109.577 166.264 109.689 166.268 109.802C166.268 109.799 166.268 109.797 166.268 109.793C166.269 109.82 166.269 109.848 166.27 109.875C166.27 109.873 166.27 109.873 166.27 109.871C166.27 109.878 166.271 109.884 166.27 109.89C166.27 109.886 166.27 109.881 166.27 109.876C166.096 114.514 166.259 119.155 166.093 123.792C165.918 124.872 166.636 127.809 165.281 128.073C164.995 128.087 164.758 127.896 164.655 127.635ZM138.39 102.206C138.894 102.553 138.882 103.265 138.626 103.764C141.735 102.406 138.401 98.3929 135.955 100.568C135.974 100.551 135.993 100.536 136.012 100.519C135.907 100.606 135.809 100.701 135.715 100.799C135.323 102.039 135.07 103.108 136.587 103.693C136.475 103.213 136.749 102.63 137.235 102.487C137.496 102.15 138.008 101.941 138.39 102.206ZM163.734 85.8644C163.756 85.8544 163.779 85.8459 163.802 85.8392C163.732 85.7328 163.663 85.6272 163.594 85.5194C163.644 85.6339 163.69 85.7482 163.734 85.8644Z" fill="#231F20"/>
<path id="Vector_39" d="M159.059 82.8318C158.466 82.7665 158.185 82.0597 158.375 81.5426C158.056 81.5689 157.729 81.4321 157.533 81.1762C157.594 81.6495 157.138 82.3381 156.681 81.8518C156.238 80.2582 156.699 78.4445 157.02 76.8432C157.698 74.3801 158.857 72.0592 160.41 70.0313C162.261 66.5343 170.129 63.7483 170.399 69.6177C170.505 74.4291 163.559 81.1286 159.317 82.8204C159.317 82.8197 159.317 82.819 159.317 82.8182C159.234 82.8373 159.146 82.8425 159.059 82.8318Z" fill="#231F20"/>
<path id="Vector_40" d="M161.441 105.603C161.215 105.122 161.901 104.725 162.055 104.288C163.103 102.674 163.693 100.772 164.895 99.2659C165.222 98.6331 166.099 98.6723 165.779 99.4927C165.545 99.8453 165.235 100.147 164.998 100.5C164.329 101.307 162.408 106.072 161.441 105.603Z" fill="#231F20"/>
<path id="Vector_41" d="M164.874 128.881C164.553 128.889 164.246 128.713 164.099 128.424V128.425C163.689 127.653 164.307 126.823 165.081 126.644C166.12 125.967 167.17 125.291 168.202 124.595C169.189 123.992 170.382 121.604 171.615 122.109C171.994 122.385 172.032 122.941 171.787 123.322C169.927 125.547 167.553 127.765 164.874 128.881Z" fill="#231F20"/>
<path id="Vector_42" d="M143.775 127.838C143.705 127.812 143.634 127.785 143.565 127.757C142.81 127.817 142.315 127.069 141.644 126.837C140.714 126.281 139.646 125.863 138.817 125.174C138.41 124.633 138.768 123.762 139.416 123.617C141.18 123.421 142.434 124.959 143.734 125.892C143.699 125.871 143.665 125.85 143.63 125.83C144.07 126.023 144.418 126.427 144.31 126.935C145.726 127.383 144.857 128.419 143.775 127.838Z" fill="#231F20"/>
<path id="Vector_43" d="M191.485 121.116C190.199 120.248 191.782 117.905 191.886 116.656C193.325 112.141 194.796 107.641 195.88 103.022C199.418 92.2279 201.832 81.0813 205.633 70.3764C205.616 70.4253 205.598 70.4736 205.58 70.5224C207.549 64.6786 209.778 58.9386 211.916 53.1554C213.674 49.0606 214.727 44.676 216.733 40.6938C220.31 34.9378 221.945 28.3077 224.737 22.206C224.732 22.2145 224.728 22.2229 224.724 22.2314C224.748 22.1853 224.772 22.1393 224.796 22.0933C224.795 22.094 224.795 22.0946 224.795 22.0952C226.027 18.4235 227.306 18.6946 230.41 17.0869C229.866 17.0849 229.327 17.1307 228.785 17.1953C228.807 17.1928 228.828 17.1904 228.85 17.1877C227.613 17.1102 224.176 18.9711 223.919 17.0803C223.95 16.0699 227.273 14.7687 228.186 13.8387C226.293 14.3861 224.666 15.496 222.964 16.4405C221.365 17.228 220.464 15.7664 221.617 14.5162C222.838 12.9056 224.077 11.3058 225.42 9.79405C223.074 11.1836 221.003 13.0475 219.398 15.2536C219.227 15.4954 218.989 15.7895 218.652 15.7247C216.627 14.7225 222.424 9.4661 222.442 7.62833C222.438 7.66469 222.434 7.7003 222.431 7.73666C222.439 7.67229 222.444 7.60747 222.446 7.54266C218.785 9.93932 216.882 14.2664 214.596 17.8795C214.606 17.8596 214.616 17.8397 214.626 17.8199C214.534 17.9963 214.442 18.1725 214.35 18.3489C214.36 18.3294 214.37 18.3098 214.38 18.2905C213.875 19.2816 213.386 20.282 212.871 21.2693C212.895 21.2237 212.919 21.1781 212.942 21.1325C205.841 35.4088 199.423 50.0971 194.704 65.3438C191.665 74.1463 187.833 82.6576 184.808 91.4703C184.816 91.4492 184.824 91.428 184.832 91.4072C184.779 91.5511 184.726 91.695 184.673 91.839C184.673 91.8378 184.673 91.8366 184.674 91.8354C184.665 91.8582 184.657 91.8805 184.649 91.9033C184.652 91.8947 184.655 91.886 184.659 91.8774C182.562 98.1917 180.169 104.392 177.919 110.651C177.574 111.144 176.315 116.949 175.64 115.106C175.639 115.107 175.639 115.107 175.638 115.108C175.718 114.854 175.484 114.504 175.787 114.346C176.693 110.38 177.893 106.479 179.302 102.664C179.288 102.703 179.273 102.741 179.258 102.78C183.048 91.1385 187.102 79.5892 191.729 68.2481C196.898 51.7019 203.502 35.6418 211.331 20.175C211.321 20.1945 211.311 20.2141 211.3 20.2333C213.344 16.0199 215.793 11.9873 218.612 8.24952C219.769 7.20398 221.117 5.76241 222.757 5.70728C224.851 6.44661 223.364 9.08809 222.488 10.2893C223.535 9.72536 226.163 7.00656 226.898 8.9887C226.961 10.0156 225.9 10.6956 225.374 11.4742C224.511 12.5567 223.706 13.6864 222.931 14.8326C224.991 13.569 227.238 12.2385 229.713 12.1508C231.776 13.2121 228.405 15.1947 227.505 15.9159C228.975 15.5411 233.699 14.9775 231.709 17.7284C230.29 19.3563 226.967 19.2788 226.892 21.8686C224.066 28.6217 222.02 35.7525 218.13 42.0309C215.144 49.159 212.806 56.5655 209.857 63.7183C209.875 63.6695 209.893 63.6212 209.911 63.5723C208.83 66.6687 207.85 69.7981 206.66 72.8565C206.666 72.84 206.672 72.8236 206.678 72.8072C204.458 79.6631 202.615 86.6517 200.712 93.6015C199.441 98.2194 197.765 102.714 196.721 107.396C195.918 110.815 194.641 114.093 193.688 117.469C193.147 118.604 193.324 121.594 191.485 121.116Z" fill="#231F20"/>
<path id="Vector_44" d="M119.432 135.52C113.805 127.117 109.594 117.919 105.056 108.906C102.824 104.057 99.9165 99.5651 97.5507 94.7889C97.5628 94.8157 97.5748 94.8427 97.5872 94.8696C97.4875 94.65 97.3883 94.4311 97.2886 94.2117C97.2971 94.2303 97.3054 94.2491 97.3136 94.2677C94.4062 88.044 91.6178 81.7882 89.3503 75.2982C87.5473 71.2029 85.8579 67.0406 84.6552 62.7245C82.8971 57.6348 82.6906 52.1339 80.6724 47.1482C79.3645 44.5607 79.4113 41.5142 77.9433 39.0215C77.2167 37.2159 75.6706 35.9492 74.803 34.2429C73.5168 31.2315 75.752 30.4885 77.9509 32.3895C76.0334 28.1583 79.0793 26.9282 81.4769 30.5759C80.3737 24.8306 82.0426 23.189 84.3643 29.4673C84.5208 28.0181 84.3609 26.3951 85.2478 25.1552C86.1511 24.1729 87.3262 25.4035 87.4673 26.4003C87.9581 29.584 87.699 32.9371 89.2892 35.8624C90.4963 39.6616 93.1494 42.7342 94.7952 46.3342C96.8131 50.9205 98.7481 55.5296 101.146 59.9381C105.715 69.2619 109.951 78.7852 115.594 87.5299C118.338 92.7223 121.805 97.4561 124.691 102.564C126.97 106.451 129.573 110.231 131.246 114.427C131.903 116.376 132.615 118.302 133.354 120.222C133.567 121.06 134.743 122.874 133.293 122.981C130.573 119.664 129.987 115.006 127.497 111.492C127.523 111.532 127.549 111.573 127.574 111.613C126.408 109.855 125.486 107.95 124.33 106.185C124.358 106.227 124.385 106.27 124.412 106.312C118.651 97.0819 112.887 87.8573 107.762 78.2502C104.078 70.9458 100.816 63.4296 97.0538 56.1608C94.8949 51.7414 93.4191 47.0016 90.7368 42.8403C88.7908 39.81 87.1977 36.4524 86.3757 32.9427C85.9215 30.812 86.1793 28.6052 85.8923 26.4696C85.4684 27.938 85.5748 29.5104 85.4322 31.0191C84.363 34.2828 82.7076 27.7866 82.0481 26.9832C82.0916 28.4137 82.3899 29.8393 82.7274 31.2267C82.8477 31.7425 83.2112 32.2205 83.1692 32.7627C83.0947 33.4288 82.3268 33.7008 81.8225 33.2768C80.6589 32.3513 80.2811 30.6523 78.8199 30.045C79.0452 31.5743 80.2679 32.7057 80.6219 34.1802C80.3044 37.2123 77.1767 33.7107 75.9564 33.105C76.3636 34.1974 77.2879 34.9709 77.9734 35.8837C78.8056 36.9921 79.4247 38.2428 80.1475 39.422C81.1072 41.6333 81.384 44.1 82.4828 46.2775C83.9361 49.3469 84.2465 52.757 84.9948 56.0306C86.3532 61.5734 87.9753 67.0642 90.3094 72.2827C91.8976 75.7345 92.9481 79.395 94.4293 82.8901C95.9498 86.535 97.8122 90.0246 99.336 93.6686C101.405 97.8394 103.956 101.755 105.971 105.957C110.315 114.321 114.116 122.99 119.205 130.941C119.205 130.94 119.204 130.939 119.203 130.938C119.769 132.284 122.088 134.169 120.871 135.591C120.474 136.005 119.78 135.989 119.432 135.52Z" fill="#231F20"/>
<path id="Vector_45" d="M175.323 116.735C173.485 116.219 175.436 113.284 175.519 112.017C176.393 109.24 177.355 106.479 178.5 103.801C179.51 100.873 181.322 102.318 180.034 103.258C179.2 105.007 178.724 106.907 178.195 108.765C178.546 110.088 177.57 111.488 177.356 112.811C176.784 113.928 176.888 116.71 175.323 116.735Z" fill="#231F20"/>
<path id="Vector_46" d="M115.578 79.4136C114.944 78.0967 114.737 76.6128 114.106 75.2907C113.834 74.7116 112.771 73.263 114.048 73.2485C114.042 73.2473 114.036 73.246 114.03 73.2448C115.409 74.6892 115.851 76.8934 116.722 78.6867C117.037 79.3702 116.02 80.1717 115.578 79.4136Z" fill="#231F20"/>
<path id="Vector_47" d="M120.053 82.8847C119.724 82.852 119.658 82.4795 119.531 82.2352C119.541 82.2569 119.551 82.2788 119.561 82.3006C119.499 81.7651 116.535 76.656 117.986 77.3508C118.303 78.1419 121.849 82.9486 120.053 82.8847Z" fill="#231F20"/>
<path id="Vector_48" d="M85.6434 83.1216C84.3947 81.2047 83.998 78.8567 82.9097 76.8524C82.535 76.7357 82.6246 76.126 82.9845 76.0494C83.7547 76.1551 83.9144 77.4451 84.301 78.0283C84.936 79.5067 85.5344 81.014 86.4372 82.3551C86.8265 82.8501 86.1049 83.6775 85.6434 83.1216Z" fill="#231F20"/>
<path id="Vector_49" d="M86.2208 89.2081C85.659 88.9922 85.6015 88.1725 85.2804 87.7082C84.5792 86.26 83.7794 84.8561 83.1621 83.3689C82.8474 82.8304 83.4845 82.1973 83.5896 83.0378C83.5863 83.0259 83.5823 83.014 83.579 83.0021C83.6127 83.1031 83.6536 83.2016 83.6965 83.2995C83.6957 83.2977 83.6949 83.2959 83.694 83.2941C84.3408 84.6441 85.1261 85.922 85.9126 87.1934C86.2327 87.7485 87.4479 88.9937 86.2208 89.2081Z" fill="#231F20"/>
<path id="Vector_50" d="M186.617 69.4265C186.623 69.4277 186.629 69.4288 186.634 69.43C186.622 69.4277 186.611 69.4255 186.599 69.4228C186.604 69.4238 186.609 69.4249 186.615 69.4261C186.6 69.423 186.586 69.4191 186.573 69.4146C186.575 69.4156 186.577 69.4165 186.579 69.4176C186.547 69.4079 186.516 69.393 186.486 69.3724C186.488 69.3732 186.489 69.3739 186.491 69.3747C186.064 68.9856 186.385 68.2977 186.525 67.8328C186.521 67.8418 186.518 67.8508 186.515 67.8599C186.527 67.8285 186.538 67.7971 186.55 67.7655C186.547 67.7729 186.544 67.7804 186.541 67.788C186.56 67.7372 186.579 67.6862 186.597 67.6354C186.589 67.6572 186.581 67.679 186.573 67.7008C186.597 67.6387 186.619 67.5765 186.642 67.5144C186.634 67.5362 186.626 67.5581 186.618 67.5798C187.211 66.0272 187.981 64.5436 188.478 62.9538C188.703 62.4721 188.682 61.4373 189.431 61.5583C190.515 62.19 188.19 65.7511 187.884 66.7658C187.605 67.4562 187.147 68.1423 187.065 68.8809C187.136 69.1488 186.907 69.4784 186.617 69.4265Z" fill="#231F20"/>
<path id="Vector_51" d="M185.525 65.1116C185.544 64.9591 185.596 64.8044 185.649 64.6603C185.645 64.6722 185.64 64.6842 185.636 64.6953C186.535 62.6524 187.232 60.5029 188.335 58.5594C188.769 57.9225 189.435 58.7569 188.925 59.2096C188.926 59.2089 188.926 59.208 188.927 59.2072C188.654 59.593 188.402 59.9919 188.171 60.4035C188.171 60.4026 188.172 60.4017 188.172 60.4009C187.445 61.8675 186.661 63.312 186.054 64.8333C185.961 65.0215 186.006 65.3597 185.736 65.3877C185.587 65.3953 185.509 65.2442 185.525 65.1116Z" fill="#231F20"/>
<path id="Vector_52" d="M211.331 68.6994C211.414 67.3513 212.496 66.3123 213.047 65.1288C213.312 64.7052 213.481 63.7818 214.157 64.0411C215.26 65.0756 212.182 67.3152 212.074 68.5713C212.074 68.5708 212.074 68.5705 212.074 68.5702C212.125 69.0566 211.384 69.2437 211.331 68.6994Z" fill="#231F20"/>
<path id="Vector_53" d="M214.556 70.1769C213.779 69.5195 215.09 68.089 215.317 67.3145C215.314 67.3198 215.311 67.3253 215.308 67.3309C215.878 66.4087 216.263 65.2267 217.113 64.5419C217.753 64.3155 218.096 65.1912 217.702 65.6309C216.924 66.7138 216.161 67.8139 215.599 69.0272C215.344 69.4565 215.262 70.4336 214.556 70.1769Z" fill="#231F20"/>
<path id="Vector_54" d="M142.367 116.529C139.765 116.502 137.542 114.126 137.116 111.672C136.403 110.295 140.697 109.468 141.617 109.066C143.767 108.385 146.057 108.554 148.254 108.176C148.25 108.178 148.246 108.18 148.243 108.181C148.26 108.173 148.277 108.165 148.294 108.157C148.285 108.162 148.276 108.166 148.267 108.17C149.008 107.933 148.898 109.047 148.901 109.499C148.883 113.055 146.173 116.743 142.367 116.529ZM143.637 115.303C145.214 115.063 146.576 113.98 147.369 112.623C147.367 112.626 147.365 112.629 147.363 112.633C147.373 112.614 147.384 112.594 147.394 112.575C147.39 112.582 147.386 112.589 147.383 112.596C147.858 111.479 148.163 110.245 148.086 109.025C146.12 109.438 144.095 109.429 142.148 109.945C142.169 109.939 142.191 109.934 142.211 109.927C140.951 110.33 139.663 110.66 138.46 111.221C139.241 113.474 140.96 115.793 143.637 115.303Z" fill="#231F20"/>
<path id="Vector_55" d="M41.2852 204.386C40.7469 203.869 40.6946 202.94 40.3171 202.265C40.2251 202.288 40.1258 202.229 40.107 202.137C39.4117 201.895 39.3826 201.004 39.0861 200.429C38.4791 198.857 37.9148 197.267 37.2485 195.718C32.9515 186.104 29.7118 176.079 26.0525 166.215C24.9678 163.956 24.9801 161.189 23.5478 159.147C23.1553 158.786 23.1193 158.202 23.5244 157.83C24.4173 157.095 25.6807 157.146 26.7707 156.983C29.2828 156.564 31.814 156.292 34.3597 156.156C44.5839 155.562 54.8262 155.761 65.0563 155.355C70.7833 155.071 76.521 155.095 82.2448 155.416C83.4772 155.62 84.3715 154.676 85.0954 156.178L85.0948 156.177C85.1104 156.202 85.1249 156.227 85.1404 156.251C85.1396 156.251 85.1396 156.251 85.139 156.25C88.9074 164.642 90.3266 173.859 92.7233 182.695C93.7235 186.06 94.9049 189.366 95.9795 192.707C96.1197 193.745 97.7212 195.584 96.341 196.198C96.4137 196.467 96.4837 196.738 96.5524 197.008C107.035 196.753 117.533 195.775 128.016 196.404C127.992 196.402 127.968 196.4 127.943 196.399C132.806 196.686 137.684 196.529 142.482 197.456C142.473 197.455 142.465 197.454 142.456 197.452C142.508 197.461 142.56 197.469 142.613 197.477C142.569 197.47 142.525 197.463 142.482 197.456C142.488 197.457 142.495 197.458 142.502 197.459C142.392 197.442 142.282 197.424 142.171 197.406C143.764 197.694 145.383 197.729 146.998 197.764C147.148 198.561 147.458 199.366 147.934 200.044C148.088 200.937 148.213 201.84 148.477 202.706C141.964 203.937 135.108 203.519 128.469 203.59C119.149 203.636 109.832 203.613 100.511 203.56C94.3801 203.304 88.2513 203.78 82.1201 203.702C75.4719 203.837 68.8174 203.658 62.1768 204.019C55.2267 204.329 48.186 203.918 41.2852 204.386Z" fill="#231F20"/>
<path id="Vector_56" d="M96.5444 198.356C96.4817 198.316 96.4325 198.264 96.3914 198.207C95.7443 197.966 95.7167 195.813 95.3232 195.09C95.2156 195.044 95.1464 194.934 95.148 194.805C95.1478 194.807 95.1478 194.809 95.1477 194.811C94.7494 194.199 96.06 193.504 96.2357 194.617C96.5593 195.533 96.7968 196.473 97.1979 197.361C97.5451 197.84 97.1692 198.679 96.5444 198.356Z" fill="#231F20"/>
<path id="Vector_57" d="M101.229 198.303C100.755 197.893 100.651 197.21 100.457 196.641C100.938 196.69 101.456 196.672 101.931 196.555C102.239 197.219 102.398 198.767 101.229 198.303Z" fill="#231F20"/>
<path id="Vector_58" d="M118.691 196.868C118.537 196.687 118.566 196.445 118.608 196.229C119.052 196.243 119.501 196.204 119.933 196.076C119.827 196.59 119.227 197.414 118.691 196.868Z" fill="#231F20"/>
<path id="Vector_59" d="M56.4738 182.573C55.5554 182.428 54.5023 182.265 53.7593 181.675C52.5693 180.098 52.8056 177.805 53.7911 176.178C54.4765 174.628 57.2967 173.176 58.3757 175C63.1377 176.33 60.8923 183.04 56.4738 182.573ZM57.23 181.151C61.2852 180.364 60.1689 175.643 56.2093 176.548C54.8952 177.086 54.1263 179.251 55.0769 180.345C55.6747 180.684 56.7137 180.404 56.9871 181.157C57.0679 181.157 57.1486 181.155 57.23 181.151Z" fill="white"/>
<path id="Vector_60" d="M128.438 143.111C127.579 142.798 128.573 141.242 128.611 140.579C128.798 140.215 129.104 137.691 129.711 138.664C129.712 138.663 129.712 138.663 129.712 138.663C129.54 139.514 129.429 143.14 128.438 143.111Z" fill="white"/>
<path id="Vector_61" d="M131.967 140.053C131.196 139.899 132.946 137.418 132.834 136.554C132.834 136.556 132.834 136.557 132.834 136.558C133.546 135.234 132.794 140.585 131.967 140.053Z" fill="white"/>
<path id="Vector_62" d="M139.894 133.754C139.445 132.868 140.914 132.55 141.533 132.735C141.906 132.851 141.713 133.438 141.362 133.413C141.38 133.416 141.398 133.412 141.416 133.411C141.381 133.414 141.347 133.422 141.313 133.429C141.327 133.427 141.342 133.423 141.357 133.42C141.29 133.437 141.223 133.456 141.157 133.476C141.173 133.471 141.189 133.465 141.204 133.459C141.161 133.475 141.116 133.491 141.072 133.507C141.088 133.501 141.105 133.495 141.121 133.489C140.713 133.573 140.279 134.179 139.894 133.754Z" fill="white"/>
<path id="Vector_63" d="M140.118 137.418C139.157 136.354 141.54 136.409 142.112 136.136C142.305 136.083 142.499 136.191 142.542 136.391C142.505 137.276 141.097 137.022 140.5 137.392C140.513 137.388 140.525 137.383 140.538 137.379C140.52 137.385 140.502 137.392 140.484 137.398C140.487 137.397 140.489 137.396 140.491 137.396C140.371 137.444 140.241 137.474 140.118 137.418Z" fill="white"/>
<path id="Vector_64" d="M169.919 136.158C169.174 136.033 166.971 134.791 168.306 134.106C168.465 134.103 168.601 134.223 168.622 134.378C168.838 134.692 169.238 134.8 169.577 134.929C169.559 134.922 169.539 134.915 169.521 134.909C169.958 135.064 170.788 135.081 170.576 135.756C170.491 136.015 170.198 136.245 169.919 136.158Z" fill="white"/>
<path id="Vector_65" d="M167.071 139.877C166.71 139.556 166.534 138.648 167.163 138.546C167.573 138.548 167.397 138.972 167.515 139.201C167.96 139.51 167.507 140.277 167.071 139.877Z" fill="white"/>
<path id="Vector_66" d="M159.683 78.5033C159.688 78.5426 159.714 78.5742 159.732 78.6089C159.258 77.1626 160.852 73.1688 161.982 72.1862C163.132 72.1413 162.227 73.3425 161.914 73.8058C161.926 73.7833 161.939 73.7608 161.952 73.7377C161.928 73.7802 161.904 73.8225 161.881 73.8646C161.882 73.8621 161.884 73.8594 161.885 73.8569C161.863 73.8962 161.841 73.9356 161.819 73.9749C161.823 73.9673 161.827 73.9597 161.832 73.952C161.828 73.9594 161.823 73.967 161.819 73.9745C161.822 73.9697 161.825 73.9651 161.827 73.9604C161.105 75.2579 160.432 76.6213 160.233 78.1089C160.579 78.4665 159.861 79.0287 159.683 78.5033Z" fill="white"/>
<path id="Vector_67" d="M161.529 76.8697C160.918 76.4455 161.882 75.5834 162.076 75.0996C162.483 74.6763 162.764 73.5121 163.471 73.6985C163.982 74.2927 162.823 74.8779 162.606 75.4226C162.616 75.4101 162.625 75.3968 162.635 75.3836C162.156 75.7491 162.152 76.8883 161.529 76.8697Z" fill="white"/>
<path id="Vector_68" d="M159.814 85.6741C158.705 85.2676 160.999 83.6896 161.236 84.6095C161.343 85.1885 160.679 85.2302 160.301 85.4086C160.152 85.5175 160.034 85.7161 159.814 85.6741Z" fill="white"/>
<path id="Vector_69" d="M160.598 87.2092C160.279 86.8081 161.391 85.9225 161.673 86.3897C161.979 86.7327 160.793 87.571 160.598 87.2092Z" fill="white"/>
<path id="Vector_70" d="M161.871 88.7907C161.869 88.2521 162.741 88.1171 162.719 88.7326C162.721 89.2713 161.848 89.4061 161.871 88.7907Z" fill="white"/>
<path id="Vector_71" d="M158.888 167.435C156.326 167.306 152.108 165.341 151.873 162.487C151.948 162.012 152.681 162.055 152.554 162.575C152.554 162.572 152.555 162.569 152.556 162.566C152.556 162.566 152.556 162.567 152.556 162.568C152.557 162.561 152.559 162.555 152.561 162.548C153.305 164.827 156.216 165.955 158.405 166.37C158.385 166.369 158.364 166.368 158.344 166.368C160.807 166.657 162.865 165.073 164.6 163.527C164.595 163.531 164.59 163.536 164.585 163.54C164.755 163.395 164.925 163.251 165.096 163.107C165.082 163.118 165.068 163.13 165.054 163.142C165.079 163.12 165.105 163.098 165.131 163.076C165.128 163.079 165.125 163.081 165.122 163.084C165.238 162.985 165.353 162.888 165.469 162.789C165.464 162.793 165.459 162.797 165.455 162.801C166.004 162.336 166.561 161.881 167.126 161.433C167.715 160.972 168.272 161.873 167.743 162.304C167.335 162.663 166.929 163.025 166.515 163.377C166.519 163.373 166.523 163.369 166.528 163.366C164.312 165.204 161.984 167.555 158.888 167.435Z" fill="white"/>
<path id="Vector_72" d="M169.199 164.417C168.616 164.035 171.61 161.524 171.925 160.714C172.026 160.578 172.236 160.52 172.383 160.615C172.853 161.256 171.474 162.234 171.141 162.793C170.629 163.162 169.836 164.721 169.199 164.417Z" fill="white"/>
<path id="Vector_73" d="M174.212 163.654C173.788 163.287 174.413 162.805 174.588 162.459C174.876 162.159 175.131 161.397 175.65 161.639C176.18 162.193 175.126 162.759 174.9 163.247C174.756 163.482 174.528 163.843 174.212 163.654Z" fill="white"/>
<path id="Vector_74" d="M168.289 185.994C167.559 184.822 170.136 184.136 170.86 183.615C171.933 183.406 171.601 184.718 170.77 184.85C170.016 185.016 168.89 186.452 168.289 185.994Z" fill="white"/>
</g>
</svg>
